<?xml version="1.0" encoding="utf-8"?><!DOCTYPE svg PUBLIC "-//W3C//DTD SVG 1.1//EN" "http://www.w3.org/Graphics/SVG/1.1/DTD/svg11.dtd"><svg id="" width="128" height="128" style="width:128px;height:128px;" version="1.1" xmlns="http://www.w3.org/2000/svg" viewBox="0 0 512 512" enable-background="new 0 0 512 512" xml:space="preserve"><path fill="#666" d="M314.4 0.8 q-10.4 -2.4 -20 2.4 l0 0 l0 0 q-8.8 4.8 -12 15.2 l-102.4 358.4 l0 0 q-2.4 10.4 2.4 20 q4.8 8.8 15.2 12 q10.4 2.4 20 -2.4 q8.8 -4.8 12 -15.2 l102.4 -358.4 l0 0 q2.4 -10.4 -2.4 -20 q-4.8 -8.8 -15.2 -12 l0 0 ZM378.4 96.8 q-7.2 8 -7.2 18.4 l0 0 l0 0 q0 10.4 7.2 18.4 l72 71.2 l0 0 l-72 71.2 l0 0 q-7.2 8 -7.2 18.4 q0 10.4 7.2 18.4 q8 7.2 18.4 7.2 q10.4 0 18.4 -7.2 l89.6 -89.6 l0 0 q7.2 -8 7.2 -18.4 q0 -10.4 -7.2 -18.4 l-89.6 -89.6 l0 0 q-8 -7.2 -18.4 -7.2 q-10.4 0 -18.4 7.2 l0 0 ZM133.6 96.8 q-8 -7.2 -18.4 -7.2 l0 0 l0 0 q-10.4 0 -18.4 7.2 l-89.6 89.6 l0 0 q-7.2 8 -7.2 18.4 q0 10.4 7.2 18.4 l89.6 89.6 l0 0 q8 7.2 18.4 7.2 q10.4 0 18.4 -7.2 q7.2 -8 7.2 -18.4 q0 -10.4 -7.2 -18.4 l-72 -71.2 l0 0 l72 -71.2 l0 0 q7.2 -8 7.2 -18.4 q0 -10.4 -7.2 -18.4 l0 0 Z"/></svg>